# xmcd
#
# Track frame offsets:
#	150
#	27149
#	47866
#	76575
#	95511
#	117590
#	148644
#	191589
#	213473
#	237818
#	261628
#
# Disc length: 3825 seconds
#
# Revision: 1
# Processed by: cddbd v1.5.1PL2 Copyright (c) Steve Scherf et al.
# Submitted via: audiograbber 1.83.01
#
DISCID=9a0eef0b
DTITLE=Griff Hamlin - Live In Poland - 2004
DYEAR=1900
DGENRE=
TTITLE0=G-String Shuffle/Letter To My Girlfriend
TTITLE1=All Along The Watchtower
TTITLE2=Texas Flood
TTITLE3=Got To End
TTITLE4=Running On
TTITLE5=Hoochie Koochie Man
TTITLE6=Me and My Guitar
TTITLE7=Don't Lie
TTITLE8=Help The Poor
TTITLE9=Little Wing
TTITLE10=Sweet Home Chicago
EXTD=
EXTT0=
EXTT1=
EXTT2=
EXTT3=
EXTT4=
EXTT5=
EXTT6=
EXTT7=
EXTT8=
EXTT9=
EXTT10=
PLAYORDER=
